<svg xmlns="http://www.w3.org/2000/svg" xml:space="preserve" style="enable-background:new 0 0 101.1 101.1" viewBox="0 0 101.1 101.1"><path d="m40.2 9.8.8.1 37.7 11.4c.5.1.9.4 1.2.9l14.8 27.9.2 1-.2 1-22 38.1-.9.8-1.2.2L23.2 84c-.5-.1-1-.4-1.3-.8L8.7 65.5c-.2-.3-.4-.7-.4-1.1L6.2 32.2c0-.4 0-.7.2-1.1l.7-.8L39.3 10l.9-.2m-32 22.3 2.1 32.2 13.2 17.8 47.4 7.2 22-38.1-14.8-28-37.7-11.4L8.2 32.1" style="fill:#5c4434"/><path d="M35.5 41.8h-3L29 49l3.5 7.5 5-.5 2.5-3.5-4.5-3v-7.7m-15 16.1V37.6l23.2-12.2 10 2.2 4 7.8 5.2-5.8 7.9 1.7 6.4 20.4-17.3 23.6-6.9-1.5-10.5-7.5-9 3.3-4.9-1.1-8.1-10.6" style="fill:#997055"/><path d="m20.5 57.9 8 10.6 4.9 1.1 9-3.3L53 73.8l6.9 1.5 17.4-23.7-6.4-20.4-7.9-1.7-5.2 5.8-4-7.8-10-2.2-23.3 12.3v20.3m15-16.1v7.8l4.5 3-2.5 3.4-5 .5L29 49l3.5-7.2h3M8.2 32.1l32.2-20.3L78 23.2l14.9 27.9-22 38.1L23.5 82 10.3 64.3 8.2 32.1" style="fill:#836049"/></svg>